#!OML:ASF E:/inclinewalkrobotboard/Project1/Captureday1/Session1/subject1.ASF
:FULLY-SPECIFIED
:DEGREES
163
root 0 0 0 1.848140769471192 -4.1747802887025856 1.8706505134219809
lowerback 12.057513223207106 1.294149717042939 0.2798705135269325
upperback -4.43450565371992 1.6861662809671691 -0.8443295992661642
thorax -11.588867032047128 0.7767087141625516 -1.3714994271356733
lowerneck -6.318292613120895 1.682334479928049 4.815243046494516
upperneck 18.352118991428306 3.184743779785868 -8.459192037993956
head 6.771322879681543 1.1743655583780757 -3.290605332094727
rclavicle -2.3595323821879876E-15 -1.2035344765838162E-15
rhumerus 23.26207445969508 17.810116289741565 -48.443822227006294
rradius 74.90030667009613
rwrist 25.870106231070096
rhand -34.832716681046094 -58.155082887829536
rfingers 7.12502
rthumb -7.976037618252613 -88.07915690721484
lclavicle -1.3209575393757386E-15 -9.842625779305296E-16
lhumerus 22.217745992959664 -14.116268441431387 45.63002423651258
lradius 71.07989867523716
lwrist -21.636497920705857
lhand -45.264571551221934 -69.38329835259512
lfingers 7.125020000000012
lthumb -18.039322013838568 -40.12746896290227
rfemur -22.149187408028368 -0.44038640930354855 19.415836312394642
rtibia 44.075207059260165
rfoot -33.325336972758606 -17.45321705106496
rtoes -23.20630625195835
lfemur -29.9601467456678 2.281107155772163 -13.024423016005223
ltibia 50.76067427226753
lfoot -26.917275987340076 0.9412650710403243
ltoes -21.298689893420068
164
root 0 0 0 1.8424081291703853 -4.215749806772222 1.9161139107065934
lowerback 12.086874437297102 1.3057355257877377 0.2591840792164542
upperback -4.428557145298216 1.6972321796156384 -0.8632593991752197
thorax -11.601245659290782 0.7830015301164841 -1.3796056423896528
lowerneck -6.331753865157526 1.6814794112538591 4.811167753347574
upperneck 18.35721634596293 3.183557921383498 -8.456496783008793
head 6.775110860246721 1.17384290838211 -3.2894744969856857
rclavicle -2.4200219181835313E-15 -1.2474777282595578E-15
rhumerus 23.335624919954327 17.902762511870613 -48.488311882508064
rradius 74.96411612696022
rwrist 25.817943546382885
rhand -34.83893154450655 -58.1729828718556
rfingers 7.12502
rthumb -7.98233178001853 -88.09449447977113
lclavicle -1.3842616060203078E-15 -1.0275346504000131E-15
lhumerus 22.21549699552706 -14.080641314157631 45.60808684640641
lradius 71.06646270788114
lwrist -21.665439696632262
lhand -45.271802028329425 -69.4456655455638
lfingers 7.125020000000012
lthumb -18.046774330707112 -40.19120446787896
rfemur -22.60845200713789 -0.8091092018778876 18.99510193702305
rtibia 46.186719600447
rfoot -32.48775898220417 -17.44754671854859
rtoes -22.777895077499636
lfemur -30.12815894908278 2.3795991729597636 -13.348841232458597
ltibia 50.65419321765978
lfoot -27.567996641481855 1.279795870071104
ltoes -20.711119093441216
165
root 0 0 0 1.8542868208448091 -4.229666631531187 2.0071602173731367
lowerback 12.10572799710979 1.3004697954384037 0.18237506972882783
upperback -4.423932678772609 1.6787642232580597 -0.8839948545062543
thorax -11.607128511962625 0.7763441228027453 -1.3528726970536222
lowerneck -6.345463973705726 1.6880951330114107 4.803626660015697
upperneck 18.33141318553822 3.1930894564521575 -8.450198176493519
head 6.768507971323813 1.1787880632499381 -3.2858370094468192
rclavicle -2.4507744083456535E-15 -1.2777334634237973E-15
rhumerus 23.47685769810039 18.09463040352106 -48.60001589724896
rradius 75.08284866592939
rwrist 25.690996817962677
rhand -34.844362925248305 -58.17491101877125
rfingers 7.12502
rthumb -7.9880258690583865 -88.08986229381858
lclavicle -1.3812262559769088E-15 -1.0342159338395708E-15
lhumerus 22.255717968931684 -14.13991026150789 45.620473700421925
lradius 71.10613598237926
lwrist -21.63462591115995
lhand -45.2783445454379 -69.41597470505548
lfingers 7.125020000000013
lthumb -18.053707823703686 -40.16426737469065
rfemur -23.51675897020667 -1.0685470718238634 18.582632998538962
rtibia 47.33039622415614
rfoot -32.122188869369126 -17.619151532778027
rtoes -22.500797636200968
lfemur -29.741063082504894 2.331613270576957 -14.166604270024648
ltibia 48.77374472231664
lfoot -29.843898925779442 2.533065862396275
ltoes -20.16330942448107
166
root 0 0 0 1.869406479524435 -4.207840442706056 2.0707892063990787
lowerback 12.10006316132595 1.2854104787512213 0.11441140598928218
upperback -4.424037315775045 1.6494945466231332 -0.8918995413530634
thorax -11.60237750569311 0.763944209263205 -1.317274906102975
lowerneck -6.348215427002946 1.695293410234959 4.798711662956666
upperneck 18.301666086489483 3.2031592051349085 -8.444557342443053
head 6.758902643471497 1.1841091857734085 -3.2826368015817406
rclavicle -2.3838318937119104E-15 -1.2399474105855411E-15
rhumerus 23.562488416153847 18.221263392228735 -48.68853158664297
rradius 75.15279956773111
rwrist 25.595242171403555
rhand -34.84235954666792 -58.15513325609488
rfingers 7.12502
rthumb -7.985828701272004 -88.06480996608146
lclavicle -1.2950372990956928E-15 -9.961441425490663E-16
lhumerus 22.305957947532953 -14.23587563292954 45.65207655881013
lradius 71.16461420040824
lwrist -21.575982246656707
lhand -45.279743948400714 -69.3332141627228
lfingers 7.125020000000013
lthumb -18.054376827274588 -40.08361050664871
rfemur -24.029321853155693 -1.0697883816503855 18.484296452423095
rtibia 46.99133027137182
rfoot -32.40210243187077 -17.78584804654477
rtoes -22.59935931437511
lfemur -29.09166602066947 2.1653832616521256 -14.815736890279279
ltibia 46.64425127776857
lfoot -31.753217206804102 3.5849880139817962
ltoes -20.10480793142245
167
root 0 0 0 1.8847963513200359 -4.1619805993944405 2.1307823067060743
lowerback 12.07997629874842 1.2614504676047456 0.03898210836187965
upperback -4.427570887187648 1.607951299155821 -0.893929696592337
thorax -11.591983711107282 0.7456266265906553 -1.2702659261483744
lowerneck -6.339949406792252 1.703951464762966 4.794437832358586
upperneck 18.27147996547327 3.21580529925195 -8.440521687990445
head 6.747381593829677 1.1905041455809955 -3.2797229364273575
rclavicle -2.2945849505777347E-15 -1.2045943719019311E-15
rhumerus 23.620834252592196 18.311565975706586 -48.755752166955546
rradius 75.19979243489374
rwrist 25.52251577430952
rhand -34.8390726545025 -58.13264702750663
rfingers 7.125019999999999
rthumb -7.98275565318618 -88.0388355804692
lclavicle -1.2066152577376557E-15 -9.48300997376267E-16
lhumerus 22.34784271851158 -14.335567275289995 45.69052586779232
lradius 71.21808515896748
lwrist -21.512456117943138
lhand -45.27749087833559 -69.23164975926183
lfingers 7.125020000000012
lthumb -18.05225011867129 -39.98238941104097
rfemur -24.399134087198604 -0.9956969297943674 18.478102487366797
rtibia 46.22628177148826
rfoot -32.834560577127476 -17.926480526070783
rtoes -22.835687492246837
lfemur -28.205475763285264 1.9026018857586755 -15.437481506272045
ltibia 44.134507227544454
lfoot -33.35575462796073 4.5150932012298854
ltoes -20.218130484037772
168
root 0 0 0 1.8966358843074618 -4.096965405020919 2.1797832205072645
lowerback 12.050927449886466 1.2318713646511763 -0.03305999785543812
upperback -4.433628071672309 1.559774784683895 -0.8902042988926638
thorax -11.578902834736764 0.7239223246422152 -1.2187898131445816
lowerneck -6.323943305952551 1.713725729283422 4.793144049466115
upperneck 18.244154514765615 3.230297832719047 -8.44038343085207
head 6.735545440161062 1.197538069434323 -3.278276995027368
rclavicle -2.209348291031261E-15 -1.15622161919417E-15
rhumerus 23.610885909174847 18.31248339234829 -48.773850951068795
rradius 75.19004317609586
rwrist 25.505533211792706
rhand -34.83250106334687 -58.10477500253878
rfingers 7.125019999999999
rthumb -7.976079933032947 -88.00822092583192
lclavicle -1.1118324538165328E-15 -8.86780315402378E-16
lhumerus 22.379076458982816 -14.42164375779063 45.726534865584696
lradius 71.26271352631083
lwrist -21.454749057557116
lhand -45.273494249930245 -69.13439389501599
lfingers 7.125020000000012
lthumb -18.04795915294876 -39.885080787568
rfemur -24.601724716677023 -0.890226741345673 18.524304089327664
rtibia 45.369699883801104
rfoot -33.222829183088706 -18.00112220002306
rtoes -23.106355456906773
lfemur -27.271416503978006 1.6096947903618006 -15.924913142644469
ltibia 41.76999492061471
lfoot -34.24914979721787 5.113089150394214
ltoes -20.360583610090444
